Coordinates
nRows=8
nColumns=24

# SIMM Motion File Header:
name Coordinates
datacolumns 24
datarows 8
otherdata 1
range 0.50000000000000000000 0.50700000000000001000

Units are S.I. units (second, meters, Newtons, ...)
Angles are in degrees.

endheader
time	pelvis_tx	pelvis_ty	pelvis_tz	pelvis_tilt	pelvis_list	pelvis_rotation	hip_flexion_r	hip_adduction_r	hip_rotation_r	knee_angle_r	ankle_angle_r	subtalar_angle_r	mtp_angle_r	hip_flexion_l	hip_adduction_l	hip_rotation_l	knee_angle_l	ankle_angle_l	subtalar_angle_l	mtp_angle_l	lumbar_extension	lumbar_bending	lumbar_rotation
      0.50000000000000000000	      0.58922844496760807000	      1.03209860999496010000	     -0.02154723958664880900	      4.83420044963383330000	      0.31203867954590431000	     -0.17180257973406363000	     19.21085405370026000000	     -4.28375121330838040000	    -10.31996419471372700000	    -19.84452954054566500000	      0.94289276505227648000	     -0.00035276795911619568	     -0.00000008991794015696	    -14.21175951988389700000	      3.41948290221919700000	     -2.38392290114413450000	     -3.29058802433580060000	      8.72526237300874460000	     -0.00000194822149226348	      0.00000031970813005681	    -17.03598409547625900000	     -2.15598606490932500000	     -5.90379038908381220000
      0.50100000000000000000	      0.58916168116787981000	      1.03186821250402880000	     -0.02152487963334858200	      4.82811855992323660000	      0.35336059190580860000	     -0.16703585776715008000	     19.17218156388283700000	     -4.29991256186005360000	    -10.24934380895990800000	    -19.46422580192408000000	      0.95035447203322310000	     -0.00036082730099026942	     -0.00000368923609868544	    -14.28964551784127400000	      3.46007285471309430000	     -2.37103250078089900000	     -3.26311181217488460000	      8.76515261391941360000	      0.00002196229964724426	      0.00070449544943586772	    -17.03030886140938400000	     -2.18794261698316190000	     -5.91061101347843020000
      0.50200000000000000000	      0.58909541264761167000	      1.03163644566321540000	     -0.02150163881843368500	      4.82202962560512650000	      0.39466507402046613000	     -0.16226473182036985000	     19.13349708220436800000	     -4.31607163312026110000	    -10.17873447999061500000	    -19.08408235428516200000	      0.95781775101016497000	     -0.00037620768376803615	     -0.00001044314049443977	    -14.36754520650280200000	      3.50064392935000560000	     -2.35815635936846580000	     -3.23568325698881850000	      8.80483367454936430000	      0.00005854359563878566	      0.00176615182812368820	    -17.02465936422595000000	     -2.21988261234553840000	     -5.91742140765284040000
      0.50300000000000000000	      0.58902964399117930000	      1.03140331606985300000	     -0.02147751669780101300	      4.81593236935349010000	      0.43593963008863379000	     -0.15748481343656970000	     19.09482182232733300000	     -4.33222289892506570000	    -10.10815591562001000000	    -18.70421628100772800000	      0.96529050513818770000	     -0.00039164845835708924	     -0.00001819072777728216	    -14.44544281557905100000	      3.54117812385512250000	     -2.34529067169363660000	     -3.20833220107906540000	      8.84450351038834090000	      0.00009585412053544269	      0.00282155455595466420	    -17.01903415977980700000	     -2.25179142809346770000	     -5.92422080299972990000
      0.50400000000000000000	      0.58896437547440394000	      1.03116883556364660000	     -0.02145251157998269400	      4.80982440363802600000	      0.47716968128692339000	     -0.15269149024694237000	     19.05618125455445600000	     -4.34835870511340870000	    -10.03762400619793200000	    -18.32476007181702100000	      0.97277665199335250000	     -0.00040709037985092337	     -0.00002665373307365760	    -14.52331668182971200000	      3.58165444433513300000	     -2.33244052381443010000	     -3.18109084683115160000	      8.88416170214405200000	      0.00013440338153934112	      0.00385883242061564170	    -17.01343122094563800000	     -2.28365218842570530000	     -5.93100766456861270000
      0.50500000000000000000	      0.58889960707108724000	      1.03093301678315560000	     -0.02142662211107105800	      4.80370334518951130000	      0.51834066786207900000	     -0.14788017310730844000	     19.01760082756476000000	     -4.36447136551448270000	     -9.96715455276804190000	    -17.94584624562429600000	      0.98028025659791618000	     -0.00042252908527643510	     -0.00003575774821317786	    -14.60114519035019500000	      3.62205190419345380000	     -2.31961123667568400000	     -3.15399139095515580000	      8.92380182632335030000	      0.00017422819729659233	      0.00487689782524956730	    -17.00784855900749500000	     -2.31544801870760390000	     -5.93778042472530390000
      0.50600000000000001000	      0.58883533844831670000	      1.03069587301378560000	     -0.02139984729877086500	      4.79756682912485030000	      0.55943808376708959000	     -0.14304628954157630000	     18.97910588685037700000	     -4.38055319385184740000	     -9.89676332270419580000	    -17.56760708026675400000	      0.98780533410202387000	     -0.00043794117739322859	     -0.00004543845819666320	    -14.67890686837833600000	      3.66234956100124350000	     -2.30680823708678200000	     -3.12706596816404230000	      8.96341353937504160000	      0.00021496869170343661	      0.00588179974353132250	    -17.00228423739885700000	     -2.34716208310509790000	     -5.94453750312042750000
      0.50700000000000001000	      0.58877156925052354000	      1.03045741868621230000	     -0.02137218642124056500	      4.79141250759347330000	      0.60044746427898987000	     -0.13818527981575854000	     18.94072170223660100000	     -4.39659649069167810000	     -9.82646605145004240000	    -17.19017452945398000000	      0.99535582243802057000	     -0.00045330446477495547	     -0.00005563387089426073	    -14.75658036421081200000	      3.70252649087508430000	     -2.29403690303562470000	     -3.10034656741259740000	      9.00298643088456350000	      0.00025651208401029338	      0.00687988036309134750	    -16.99673634130884600000	     -2.37877757547368460000	     -5.95127732170816690000
